# xmcd
# Track frame offsets:
# 150
# 5167
# 17476
# 34946
# 53344
# 72381
# 92421
# 109644
# 129655
# 138724
# 162737
# 180781
# 195122
# 209289
# 240277
#
# Disc length: 3480 seconds
# Revision: 0
# Processed by: cddbd v1.5PL3 Copyright (c) Steve Scherf et al.
# Submitted via: VisiTrax 2.9.6.190 - For more info visit www.synapsa.com
#
DISCID=bc0d960f
DTITLE=OutKast - ATLiens
DYEAR=1996
DGENRE=Rap
TTITLE0=You May Die (Intro)
TTITLE1=Two Dope Boyz (In a Cadillac)
TTITLE2=ATLiens
TTITLE3=Wheelz of Steel
TTITLE4=Jazzy Belle
TTITLE5=Elevators (Me and You)
TTITLE6=Ova Da Wudz
TTITLE7=Babylon
TTITLE8=Wailin'
TTITLE9=Mainstream
TTITLE10=Decatur Psalm
TTITLE11=Millennium
TTITLE12=E.T. (Extraterrestrial)
TTITLE13=13th Floor - Growing Old
TTITLE14=Elevators (Me and You) (DNP 86 Remix)
EXTD=HSI
EXTT0=
EXTT1=
EXTT2=
EXTT3=
EXTT4=
EXTT5=
EXTT6=
EXTT7=
EXTT8=
EXTT9=
EXTT10=
EXTT11=
EXTT12=
EXTT13=
EXTT14=
PLAYORDER=
